<?xml version="1.0" standalone="no"?>
<!DOCTYPE svg PUBLIC "-//W3C//DTD SVG 20010904//EN"
 "http://www.w3.org/TR/2001/REC-SVG-20010904/DTD/svg10.dtd">
<svg version="1.0" xmlns="http://www.w3.org/2000/svg"
 width="192.000000pt" height="192.000000pt" viewBox="0 0 192.000000 192.000000"
 preserveAspectRatio="xMidYMid meet">
<metadata>
Created by potrace 1.11, written by Peter Selinger 2001-2013
</metadata>
<g transform="translate(0.000000,192.000000) scale(0.100000,-0.100000)"
fill="#000000" stroke="none">
<path d="M907 1874 c-1 -1 -27 -4 -57 -8 -73 -8 -93 -12 -170 -37 -288 -92
-521 -334 -600 -622 -28 -102 -33 -139 -32 -252 1 -185 47 -337 155 -509 23
-36 42 -59 102 -121 315 -322 800 -371 1174 -118 75 51 182 158 237 238 61 87
130 250 139 329 2 17 7 54 12 81 17 104 4 243 -32 366 -26 85 -89 222 -112
241 -7 6 -13 14 -13 19 0 23 -135 160 -214 218 -143 105 -330 170 -506 175
-44 1 -82 1 -83 0z"/>
</g>
</svg>
