<?xml version="1.0" encoding="utf-8"?>
<!-- Generator: Adobe Illustrator 18.1.1, SVG Export Plug-In . SVG Version: 6.00 Build 0)  -->
<svg version="1.0" xmlns="http://www.w3.org/2000/svg" xmlns:xlink="http://www.w3.org/1999/xlink" x="0px" y="0px"
	 viewBox="0 0 308.7 288" enable-background="new 0 0 308.7 288" xml:space="preserve">
<g>
	<g>
		<g>
			<g>
				<g>
					<polygon fill="#0e1c3f" points="310.2,95.9 255.6,105.8 255.6,106.1 310.2,96.1 					"/>
				</g>
				<g>
					<polygon fill="#0e1c3f" points="310.2,95.9 255.6,105.8 255.6,106.1 310.2,96.1 					"/>
				</g>
			</g>
			<g>
				<g>
					<polygon fill="#0e1c3f" points="310.2,74 255.5,105.9 255.7,106.1 310.2,74.3 					"/>
				</g>
				<g>
					<polygon fill="#0e1c3f" points="310.2,74 255.5,105.9 255.7,106.1 310.2,74.3 					"/>
				</g>
			</g>
			<g>
				<g>

						<rect x="7.4" y="122.3" transform="matrix(0.5972 0.8021 -0.8021 0.5972 121.6556 2.5792)" fill="#0e1c3f" width="101.7" height="0.2"/>
				</g>
				<g>
					<polygon fill="#0e1c3f" points="-1.8,91.1 27.9,81.8 27.9,81.5 -1.8,90.8 					"/>
				</g>
				<g>
					<polygon fill="#0e1c3f" points="-1.8,96.3 28,81.8 27.8,81.5 -1.8,96 					"/>
				</g>
			</g>
			<g>
				<g>

						<rect x="26.5" y="80.7" transform="matrix(0.2808 0.9598 -0.9598 0.2808 97.8874 33.4132)" fill="#0e1c3f" width="0.3" height="2.6"/>
				</g>
				<g>

						<rect x="5.7" y="122.7" transform="matrix(0.6162 0.7876 -0.7876 0.6162 118.5847 2.227)" fill="#0e1c3f" width="102.6" height="0.3"/>
				</g>
				<g>
					<polygon fill="#0e1c3f" points="-1.8,91 25.4,82.5 25.4,82.3 -1.8,90.8 					"/>
				</g>
				<g>
					<polygon fill="#0e1c3f" points="-1.8,95.9 25.5,82.5 25.3,82.3 -1.8,95.6 					"/>
				</g>
			</g>
			<g>
				<g>

						<rect x="-7.5" y="138.4" transform="matrix(0.4891 0.8722 -0.8722 0.4891 149.8412 21.1615)" fill="#0e1c3f" width="128.6" height="0.3"/>
				</g>
				<g>

						<rect x="-5.9" y="138" transform="matrix(0.4717 0.8818 -0.8818 0.4717 152.4928 21.7346)" fill="#0e1c3f" width="128.1" height="0.3"/>
				</g>
				<g>
					<rect x="88.3" y="163.2" fill="#0e1c3f" width="0.3" height="31.4"/>
				</g>
			</g>
			<g>
				<g>

						<rect x="281.4" y="62.9" transform="matrix(0.469 0.8832 -0.8832 0.469 230.9227 -199.65)" fill="#0e1c3f" width="0.2" height="58.7"/>
				</g>
				<g>

						<rect x="281.4" y="62.9" transform="matrix(0.469 0.8832 -0.8832 0.469 230.9227 -199.65)" fill="#0e1c3f" width="0.2" height="58.7"/>
				</g>
			</g>
			<g>
				<g>

						<rect x="91.6" y="83.6" transform="matrix(0.9981 6.227887e-002 -6.227887e-002 0.9981 8.8427 -5.4445)" fill="#0e1c3f" width="0.3" height="111.1"/>
				</g>
				<g>

						<rect x="25.4" y="82.9" transform="matrix(0.9998 1.821258e-002 -1.821258e-002 0.9998 1.5221 -1.0844)" fill="#0e1c3f" width="69.8" height="0.3"/>
				</g>
				<g>

						<rect x="27.9" y="82.5" transform="matrix(0.9996 2.981575e-002 -2.981575e-002 0.9996 2.4918 -1.7984)" fill="#0e1c3f" width="67.3" height="0.3"/>
				</g>
				<g>

						<rect x="91.8" y="83.5" transform="matrix(0.9966 8.274630e-002 -8.274630e-002 0.9966 10.5282 -7.1818)" fill="#0e1c3f" width="0.2" height="79.8"/>
				</g>
			</g>
			<g>
				<g>

						<rect x="70.2" y="134.1" transform="matrix(0.6076 0.7943 -0.7943 0.6076 159.1626 -53.6618)" fill="#0e1c3f" width="127.3" height="0.3"/>
				</g>
				<g>

						<rect x="130.3" y="147.3" transform="matrix(0.1173 0.9931 -0.9931 0.1173 303.5284 37.902)" fill="#0e1c3f" width="0.2" height="84.8"/>
				</g>
				<g>

						<rect x="87.2" y="173.9" transform="matrix(0.9684 0.2494 -0.2494 0.9684 47.519 -27.0703)" fill="#0e1c3f" width="86.7" height="0.3"/>
				</g>
				<g>

						<rect x="214" y="88.1" transform="matrix(0.6872 0.7264 -0.7264 0.6872 172.5658 -110.0417)" fill="#0e1c3f" width="0.3" height="114.5"/>
				</g>
				<g>

						<rect x="214" y="88.1" transform="matrix(0.6872 0.7264 -0.7264 0.6872 172.5658 -110.0417)" fill="#0e1c3f" width="0.3" height="114.5"/>
				</g>
			</g>
			<g>
				<g>

						<rect x="180.2" y="97.9" transform="matrix(0.9845 0.1756 -0.1756 0.9845 27.6849 -29.4641)" fill="#0e1c3f" width="0.2" height="87.6"/>
				</g>
				<g>

						<rect x="94.6" y="91" transform="matrix(0.9873 0.1586 -0.1586 0.9873 16.2395 -21.3052)" fill="#0e1c3f" width="94.1" height="0.3"/>
				</g>
				<g>

						<rect x="247.6" y="28" transform="matrix(0.1683 0.9857 -0.9857 0.1683 293.3119 -170.5791)" fill="#0e1c3f" width="0.2" height="121"/>
				</g>
				<g>

						<rect x="138.2" y="71.6" transform="matrix(0.5399 0.8417 -0.8417 0.5399 173.8184 -56.2295)" fill="#0e1c3f" width="0.2" height="118.6"/>
				</g>
				<g>

						<rect x="187.9" y="102.1" transform="matrix(0.9941 0.1088 -0.1088 0.9941 12.439 -23.5203)" fill="#0e1c3f" width="67.9" height="0.2"/>
				</g>
				<g>

						<rect x="187.9" y="102.1" transform="matrix(0.9941 0.1088 -0.1088 0.9941 12.439 -23.5203)" fill="#0e1c3f" width="67.9" height="0.2"/>
				</g>
			</g>
			<g>
				<g>
					<polygon fill="#0e1c3f" points="310.2,95.8 307.5,78.5 307.3,78.5 310.2,97.4 					"/>
				</g>
				<g>
					<polygon fill="#0e1c3f" points="310.2,168.6 255.7,105.9 255.5,106 310.2,168.9 					"/>
				</g>
				<g>
					<polygon fill="#0e1c3f" points="310.2,168.6 255.7,105.9 255.5,106 310.2,168.9 					"/>
				</g>
			</g>
			<g>
				<g>

						<rect x="116.8" y="145.1" transform="matrix(0.3246 0.9458 -0.9458 0.3246 271.8055 27.1191)" fill="#0e1c3f" width="0.2" height="117.7"/>
				</g>
				<g>

						<rect x="74.7" y="189.2" transform="matrix(0.7225 0.6914 -0.6914 0.7225 165.0986 6.2324)" fill="#0e1c3f" width="0.3" height="39.2"/>
				</g>
				<g>

						<rect x="74.8" y="160.2" transform="matrix(0.9087 0.4174 -0.4174 0.9087 87.4328 -13.655)" fill="#0e1c3f" width="0.3" height="65.7"/>
				</g>
				<g>
					<polygon fill="#0e1c3f" points="-1.8,225.3 61.3,223.1 61.3,222.8 -1.8,225.1 					"/>
				</g>
			</g>
			<g>
				<g>
					<polygon fill="#0e1c3f" points="-1.8,169.7 -1.8,170 61.2,223.1 61.3,222.9 					"/>
				</g>
				<g>
					<polygon fill="#0e1c3f" points="-1.8,158.4 -1.8,158.6 88.3,194.7 88.4,194.5 					"/>
				</g>
				<g>
					<polygon fill="#0e1c3f" points="-1.8,116.6 25.5,82.5 25.3,82.3 -1.8,116.2 					"/>
				</g>
				<g>
					<polygon fill="#0e1c3f" points="-1.8,117.7 28,81.7 27.8,81.6 -1.8,117.3 					"/>
				</g>
				<g>
					<polygon fill="#0e1c3f" points="-1.8,151.4 -1.8,151.7 88.6,163.3 88.6,163.1 					"/>
				</g>
			</g>
			<g>
				<g>
					<polygon fill="#0e1c3f" points="310.2,186.9 260.9,198.2 261,198.4 310.2,187.2 					"/>
				</g>
				<g>

						<rect x="162.7" y="148.3" transform="matrix(0.5899 0.8075 -0.8075 0.5899 211.9347 -120.4055)" fill="#0e1c3f" width="123.5" height="0.3"/>
				</g>
				<g>

						<rect x="172.1" y="191.4" transform="matrix(0.9885 0.1511 -0.1511 0.9885 31.4436 -30.5602)" fill="#0e1c3f" width="89.4" height="0.2"/>
				</g>
				<g>

						<rect x="284.1" y="74.1" transform="matrix(0.9318 0.3629 -0.3629 0.9318 69.6009 -93.695)" fill="#0e1c3f" width="0.3" height="128.5"/>
				</g>
				<g>
					<polygon fill="#0e1c3f" points="310.2,121.8 260.8,198.3 261,198.4 310.2,122.3 					"/>
				</g>
				<g>

						<rect x="212" y="152" transform="matrix(5.789803e-002 0.9983 -0.9983 5.789803e-002 395.1988 -114.4987)" fill="#0e1c3f" width="92.5" height="0.3"/>
				</g>
				<g>

						<rect x="212" y="152" transform="matrix(5.789803e-002 0.9983 -0.9983 5.789803e-002 395.1988 -114.4987)" fill="#0e1c3f" width="92.5" height="0.3"/>
				</g>
			</g>
		</g>
		<g>
			<circle fill="#0e1c3f" cx="255.6" cy="106" r="1.3"/>
			<circle fill="#0e1c3f" cx="255.6" cy="106" r="1.3"/>
			<circle fill="#0e1c3f" cx="255.6" cy="106" r="1.3"/>
			<circle fill="#0e1c3f" cx="255.6" cy="106" r="1.3"/>
			<circle fill="#0e1c3f" cx="88.6" cy="163.2" r="1.3"/>
			<circle fill="#0e1c3f" cx="27.9" cy="81.7" r="1.3"/>
			<circle fill="#0e1c3f" cx="27.9" cy="81.7" r="1.3"/>
			<circle fill="#0e1c3f" cx="27.9" cy="81.7" r="1.3"/>
			<circle fill="#0e1c3f" cx="27.9" cy="81.7" r="1.3"/>
			<circle fill="#0e1c3f" cx="25.4" cy="82.4" r="1.3"/>
			<circle fill="#0e1c3f" cx="88.6" cy="163.2" r="1.3"/>
			<circle fill="#0e1c3f" cx="25.4" cy="82.4" r="1.3"/>
			<circle fill="#0e1c3f" cx="25.4" cy="82.4" r="1.3"/>
			<circle fill="#0e1c3f" cx="25.4" cy="82.4" r="1.3"/>
			<circle fill="#0e1c3f" cx="25.4" cy="82.4" r="1.3"/>
			<circle fill="#0e1c3f" cx="88.3" cy="194.6" r="1.3"/>
			<circle fill="#0e1c3f" cx="27.9" cy="81.7" r="1.3"/>
			<circle fill="#0e1c3f" cx="88.3" cy="194.6" r="1.3"/>
			<circle fill="#0e1c3f" cx="88.6" cy="163.2" r="1.3"/>
			<circle fill="#0e1c3f" cx="88.3" cy="194.6" r="1.3"/>
			<circle fill="#0e1c3f" cx="307.4" cy="78.5" r="1.3"/>
			<circle fill="#0e1c3f" cx="307.4" cy="78.5" r="1.3"/>
			<circle fill="#0e1c3f" cx="255.6" cy="106" r="1.3"/>
			<circle fill="#0e1c3f" cx="307.4" cy="78.5" r="1.3"/>
			<circle fill="#0e1c3f" cx="255.6" cy="106" r="1.3"/>
			<circle fill="#0e1c3f" cx="307.4" cy="78.5" r="1.3"/>
			<circle fill="#0e1c3f" cx="88.3" cy="194.6" r="1.3"/>
			<circle fill="#0e1c3f" cx="95.2" cy="83.7" r="1.3"/>
			<circle fill="#0e1c3f" cx="25.4" cy="82.4" r="1.3"/>
			<circle fill="#0e1c3f" cx="95.2" cy="83.7" r="1.3"/>
			<circle fill="#0e1c3f" cx="27.9" cy="81.7" r="1.3"/>
			<circle fill="#0e1c3f" cx="95.2" cy="83.7" r="1.3"/>
			<circle fill="#0e1c3f" cx="88.6" cy="163.2" r="1.3"/>
			<circle fill="#0e1c3f" cx="95.2" cy="83.7" r="1.3"/>
			<circle fill="#0e1c3f" cx="95.2" cy="83.7" r="1.3"/>
			<circle fill="#0e1c3f" cx="172.6" cy="184.8" r="1.3"/>
			<circle fill="#0e1c3f" cx="88.3" cy="194.6" r="1.3"/>
			<circle fill="#0e1c3f" cx="172.6" cy="184.8" r="1.3"/>
			<circle fill="#0e1c3f" cx="88.6" cy="163.2" r="1.3"/>
			<circle fill="#0e1c3f" cx="172.6" cy="184.8" r="1.3"/>
			<circle fill="#0e1c3f" cx="255.6" cy="106" r="1.3"/>
			<circle fill="#0e1c3f" cx="172.6" cy="184.8" r="1.3"/>
			<circle fill="#0e1c3f" cx="255.6" cy="106" r="1.3"/>
			<circle fill="#0e1c3f" cx="172.6" cy="184.8" r="1.3"/>
			<circle fill="#0e1c3f" cx="172.6" cy="184.8" r="1.3"/>
			<circle fill="#0e1c3f" cx="188.1" cy="98.6" r="1.3"/>
			<circle fill="#0e1c3f" cx="95.2" cy="83.7" r="1.3"/>
			<circle fill="#0e1c3f" cx="188.1" cy="98.6" r="1.3"/>
			<circle fill="#0e1c3f" cx="307.4" cy="78.5" r="1.3"/>
			<circle fill="#0e1c3f" cx="188.1" cy="98.6" r="1.3"/>
			<circle fill="#0e1c3f" cx="88.6" cy="163.2" r="1.3"/>
			<circle fill="#0e1c3f" cx="188.1" cy="98.6" r="1.3"/>
			<circle fill="#0e1c3f" cx="255.6" cy="106" r="1.3"/>
			<circle fill="#0e1c3f" cx="188.1" cy="98.6" r="1.3"/>
			<circle fill="#0e1c3f" cx="255.6" cy="106" r="1.3"/>
			<circle fill="#0e1c3f" cx="188.1" cy="98.6" r="1.3"/>
			<circle fill="#0e1c3f" cx="307.4" cy="78.5" r="1.3"/>
			<circle fill="#0e1c3f" cx="255.6" cy="106" r="1.3"/>
			<circle fill="#0e1c3f" cx="255.6" cy="106" r="1.3"/>
			<circle fill="#0e1c3f" cx="172.6" cy="184.8" r="1.3"/>
			<circle fill="#0e1c3f" cx="61.3" cy="223" r="1.3"/>
			<circle fill="#0e1c3f" cx="88.3" cy="194.6" r="1.3"/>
			<circle fill="#0e1c3f" cx="61.3" cy="223" r="1.3"/>
			<circle fill="#0e1c3f" cx="88.6" cy="163.2" r="1.3"/>
			<circle fill="#0e1c3f" cx="61.3" cy="223" r="1.3"/>
			<circle fill="#0e1c3f" cx="61.3" cy="223" r="1.3"/>
			<circle fill="#0e1c3f" cx="61.3" cy="223" r="1.3"/>
			<circle fill="#0e1c3f" cx="88.3" cy="194.6" r="1.3"/>
			<circle fill="#0e1c3f" cx="25.4" cy="82.4" r="1.3"/>
			<circle fill="#0e1c3f" cx="27.9" cy="81.7" r="1.3"/>
			<circle fill="#0e1c3f" cx="88.6" cy="163.2" r="1.3"/>
			<circle fill="#0e1c3f" cx="260.9" cy="198.3" r="1.3"/>
			<circle fill="#0e1c3f" cx="188.1" cy="98.6" r="1.3"/>
			<circle fill="#0e1c3f" cx="260.9" cy="198.3" r="1.3"/>
			<circle fill="#0e1c3f" cx="172.6" cy="184.8" r="1.3"/>
			<circle fill="#0e1c3f" cx="260.9" cy="198.3" r="1.3"/>
			<circle fill="#0e1c3f" cx="307.4" cy="78.5" r="1.3"/>
			<circle fill="#0e1c3f" cx="260.9" cy="198.3" r="1.3"/>
			<circle fill="#0e1c3f" cx="260.9" cy="198.3" r="1.3"/>
			<circle fill="#0e1c3f" cx="255.6" cy="106" r="1.3"/>
			<circle fill="#0e1c3f" cx="260.9" cy="198.3" r="1.3"/>
			<circle fill="#0e1c3f" cx="255.6" cy="106" r="1.3"/>
			<circle fill="#0e1c3f" cx="260.9" cy="198.3" r="1.3"/>
			<circle fill="#0e1c3f" cx="307.4" cy="78.5" r="1.3"/>
			<circle fill="#0e1c3f" cx="307.4" cy="78.5" r="1.3"/>
		</g>
	</g>
	<g>
		<g>
			<g>
				<g>
					<polygon fill="#0e1c3f" points="310.2,95.9 255.6,105.8 255.6,106.1 310.2,96.1 					"/>
				</g>
				<g>
					<polygon fill="#0e1c3f" points="310.2,95.9 255.6,105.8 255.6,106.1 310.2,96.1 					"/>
				</g>
			</g>
			<g>
				<g>
					<polygon fill="#0e1c3f" points="310.2,74 255.5,105.9 255.7,106.1 310.2,74.3 					"/>
				</g>
				<g>
					<polygon fill="#0e1c3f" points="310.2,74 255.5,105.9 255.7,106.1 310.2,74.3 					"/>
				</g>
			</g>
			<g>
				<g>

						<rect x="7.4" y="122.3" transform="matrix(0.5972 0.8021 -0.8021 0.5972 121.6556 2.5792)" fill="#0e1c3f" width="101.7" height="0.2"/>
				</g>
				<g>
					<polygon fill="#0e1c3f" points="-1.8,91.1 27.9,81.8 27.9,81.5 -1.8,90.8 					"/>
				</g>
				<g>
					<polygon fill="#0e1c3f" points="-1.8,96.3 28,81.8 27.8,81.5 -1.8,96 					"/>
				</g>
			</g>
			<g>
				<g>

						<rect x="26.5" y="80.7" transform="matrix(0.2808 0.9598 -0.9598 0.2808 97.8874 33.4132)" fill="#0e1c3f" width="0.3" height="2.6"/>
				</g>
				<g>

						<rect x="5.7" y="122.7" transform="matrix(0.6162 0.7876 -0.7876 0.6162 118.5847 2.227)" fill="#0e1c3f" width="102.6" height="0.3"/>
				</g>
				<g>
					<polygon fill="#0e1c3f" points="-1.8,91 25.4,82.5 25.4,82.3 -1.8,90.8 					"/>
				</g>
				<g>
					<polygon fill="#0e1c3f" points="-1.8,95.9 25.5,82.5 25.3,82.3 -1.8,95.6 					"/>
				</g>
			</g>
			<g>
				<g>

						<rect x="-7.5" y="138.4" transform="matrix(0.4891 0.8722 -0.8722 0.4891 149.8412 21.1615)" fill="#0e1c3f" width="128.6" height="0.3"/>
				</g>
				<g>

						<rect x="-5.9" y="138" transform="matrix(0.4717 0.8818 -0.8818 0.4717 152.4928 21.7346)" fill="#0e1c3f" width="128.1" height="0.3"/>
				</g>
				<g>
					<rect x="88.3" y="163.2" fill="#0e1c3f" width="0.3" height="31.4"/>
				</g>
			</g>
			<g>
				<g>

						<rect x="281.4" y="62.9" transform="matrix(0.469 0.8832 -0.8832 0.469 230.9227 -199.65)" fill="#0e1c3f" width="0.2" height="58.7"/>
				</g>
				<g>

						<rect x="281.4" y="62.9" transform="matrix(0.469 0.8832 -0.8832 0.469 230.9227 -199.65)" fill="#0e1c3f" width="0.2" height="58.7"/>
				</g>
			</g>
			<g>
				<g>

						<rect x="91.6" y="83.6" transform="matrix(0.9981 6.227887e-002 -6.227887e-002 0.9981 8.8427 -5.4445)" fill="#0e1c3f" width="0.3" height="111.1"/>
				</g>
				<g>

						<rect x="25.4" y="82.9" transform="matrix(0.9998 1.821258e-002 -1.821258e-002 0.9998 1.5221 -1.0844)" fill="#0e1c3f" width="69.8" height="0.3"/>
				</g>
				<g>

						<rect x="27.9" y="82.5" transform="matrix(0.9996 2.981575e-002 -2.981575e-002 0.9996 2.4918 -1.7984)" fill="#0e1c3f" width="67.3" height="0.3"/>
				</g>
				<g>

						<rect x="91.8" y="83.5" transform="matrix(0.9966 8.274630e-002 -8.274630e-002 0.9966 10.5282 -7.1818)" fill="#0e1c3f" width="0.2" height="79.8"/>
				</g>
			</g>
			<g>
				<g>

						<rect x="70.2" y="134.1" transform="matrix(0.6076 0.7943 -0.7943 0.6076 159.1626 -53.6618)" fill="#0e1c3f" width="127.3" height="0.3"/>
				</g>
				<g>

						<rect x="130.3" y="147.3" transform="matrix(0.1173 0.9931 -0.9931 0.1173 303.5284 37.902)" fill="#0e1c3f" width="0.2" height="84.8"/>
				</g>
				<g>

						<rect x="87.2" y="173.9" transform="matrix(0.9684 0.2494 -0.2494 0.9684 47.519 -27.0703)" fill="#0e1c3f" width="86.7" height="0.3"/>
				</g>
				<g>

						<rect x="214" y="88.1" transform="matrix(0.6872 0.7264 -0.7264 0.6872 172.5658 -110.0417)" fill="#0e1c3f" width="0.3" height="114.5"/>
				</g>
				<g>

						<rect x="214" y="88.1" transform="matrix(0.6872 0.7264 -0.7264 0.6872 172.5658 -110.0417)" fill="#0e1c3f" width="0.3" height="114.5"/>
				</g>
			</g>
			<g>
				<g>

						<rect x="180.2" y="97.9" transform="matrix(0.9845 0.1756 -0.1756 0.9845 27.6849 -29.4641)" fill="#0e1c3f" width="0.2" height="87.6"/>
				</g>
				<g>

						<rect x="94.6" y="91" transform="matrix(0.9873 0.1586 -0.1586 0.9873 16.2395 -21.3052)" fill="#0e1c3f" width="94.1" height="0.3"/>
				</g>
				<g>

						<rect x="247.6" y="28" transform="matrix(0.1683 0.9857 -0.9857 0.1683 293.3119 -170.5791)" fill="#0e1c3f" width="0.2" height="121"/>
				</g>
				<g>

						<rect x="138.2" y="71.6" transform="matrix(0.5399 0.8417 -0.8417 0.5399 173.8184 -56.2295)" fill="#0e1c3f" width="0.2" height="118.6"/>
				</g>
				<g>

						<rect x="187.9" y="102.1" transform="matrix(0.9941 0.1088 -0.1088 0.9941 12.439 -23.5203)" fill="#0e1c3f" width="67.9" height="0.2"/>
				</g>
				<g>

						<rect x="187.9" y="102.1" transform="matrix(0.9941 0.1088 -0.1088 0.9941 12.439 -23.5203)" fill="#0e1c3f" width="67.9" height="0.2"/>
				</g>
			</g>
			<g>
				<g>
					<polygon fill="#0e1c3f" points="310.2,95.8 307.5,78.5 307.3,78.5 310.2,97.4 					"/>
				</g>
				<g>
					<polygon fill="#0e1c3f" points="310.2,168.6 255.7,105.9 255.5,106 310.2,168.9 					"/>
				</g>
				<g>
					<polygon fill="#0e1c3f" points="310.2,168.6 255.7,105.9 255.5,106 310.2,168.9 					"/>
				</g>
			</g>
			<g>
				<g>

						<rect x="116.8" y="145.1" transform="matrix(0.3246 0.9458 -0.9458 0.3246 271.8055 27.1191)" fill="#0e1c3f" width="0.2" height="117.7"/>
				</g>
				<g>

						<rect x="74.7" y="189.2" transform="matrix(0.7225 0.6914 -0.6914 0.7225 165.0986 6.2324)" fill="#0e1c3f" width="0.3" height="39.2"/>
				</g>
				<g>

						<rect x="74.8" y="160.2" transform="matrix(0.9087 0.4174 -0.4174 0.9087 87.4328 -13.655)" fill="#0e1c3f" width="0.3" height="65.7"/>
				</g>
				<g>
					<polygon fill="#0e1c3f" points="-1.8,225.3 61.3,223.1 61.3,222.8 -1.8,225.1 					"/>
				</g>
			</g>
			<g>
				<g>
					<polygon fill="#0e1c3f" points="-1.8,169.7 -1.8,170 61.2,223.1 61.3,222.9 					"/>
				</g>
				<g>
					<polygon fill="#0e1c3f" points="-1.8,158.4 -1.8,158.6 88.3,194.7 88.4,194.5 					"/>
				</g>
				<g>
					<polygon fill="#0e1c3f" points="-1.8,116.6 25.5,82.5 25.3,82.3 -1.8,116.2 					"/>
				</g>
				<g>
					<polygon fill="#0e1c3f" points="-1.8,117.7 28,81.7 27.8,81.6 -1.8,117.3 					"/>
				</g>
				<g>
					<polygon fill="#0e1c3f" points="-1.8,151.4 -1.8,151.7 88.6,163.3 88.6,163.1 					"/>
				</g>
			</g>
			<g>
				<g>
					<polygon fill="#0e1c3f" points="310.2,186.9 260.9,198.2 261,198.4 310.2,187.2 					"/>
				</g>
				<g>

						<rect x="162.7" y="148.3" transform="matrix(0.5899 0.8075 -0.8075 0.5899 211.9347 -120.4055)" fill="#0e1c3f" width="123.5" height="0.3"/>
				</g>
				<g>

						<rect x="172.1" y="191.4" transform="matrix(0.9885 0.1511 -0.1511 0.9885 31.4436 -30.5602)" fill="#0e1c3f" width="89.4" height="0.2"/>
				</g>
				<g>

						<rect x="284.1" y="74.1" transform="matrix(0.9318 0.3629 -0.3629 0.9318 69.6009 -93.695)" fill="#0e1c3f" width="0.3" height="128.5"/>
				</g>
				<g>
					<polygon fill="#0e1c3f" points="310.2,121.8 260.8,198.3 261,198.4 310.2,122.3 					"/>
				</g>
				<g>

						<rect x="212" y="152" transform="matrix(5.789803e-002 0.9983 -0.9983 5.789803e-002 395.1988 -114.4987)" fill="#0e1c3f" width="92.5" height="0.3"/>
				</g>
				<g>

						<rect x="212" y="152" transform="matrix(5.789803e-002 0.9983 -0.9983 5.789803e-002 395.1988 -114.4987)" fill="#0e1c3f" width="92.5" height="0.3"/>
				</g>
			</g>
		</g>
		<g>
			<circle fill="#0e1c3f" cx="255.6" cy="106" r="1.3"/>
			<circle fill="#0e1c3f" cx="255.6" cy="106" r="1.3"/>
			<circle fill="#0e1c3f" cx="255.6" cy="106" r="1.3"/>
			<circle fill="#0e1c3f" cx="255.6" cy="106" r="1.3"/>
			<circle fill="#0e1c3f" cx="88.6" cy="163.2" r="1.3"/>
			<circle fill="#0e1c3f" cx="27.9" cy="81.7" r="1.3"/>
			<circle fill="#0e1c3f" cx="27.9" cy="81.7" r="1.3"/>
			<circle fill="#0e1c3f" cx="27.9" cy="81.7" r="1.3"/>
			<circle fill="#0e1c3f" cx="27.9" cy="81.7" r="1.3"/>
			<circle fill="#0e1c3f" cx="25.4" cy="82.4" r="1.3"/>
			<circle fill="#0e1c3f" cx="88.6" cy="163.2" r="1.3"/>
			<circle fill="#0e1c3f" cx="25.4" cy="82.4" r="1.3"/>
			<circle fill="#0e1c3f" cx="25.4" cy="82.4" r="1.3"/>
			<circle fill="#0e1c3f" cx="25.4" cy="82.4" r="1.3"/>
			<circle fill="#0e1c3f" cx="25.4" cy="82.4" r="1.3"/>
			<circle fill="#0e1c3f" cx="88.3" cy="194.6" r="1.3"/>
			<circle fill="#0e1c3f" cx="27.9" cy="81.7" r="1.3"/>
			<circle fill="#0e1c3f" cx="88.3" cy="194.6" r="1.3"/>
			<circle fill="#0e1c3f" cx="88.6" cy="163.2" r="1.3"/>
			<circle fill="#0e1c3f" cx="88.3" cy="194.6" r="1.3"/>
			<circle fill="#0e1c3f" cx="307.4" cy="78.5" r="1.3"/>
			<circle fill="#0e1c3f" cx="307.4" cy="78.5" r="1.3"/>
			<circle fill="#0e1c3f" cx="255.6" cy="106" r="1.3"/>
			<circle fill="#0e1c3f" cx="307.4" cy="78.5" r="1.3"/>
			<circle fill="#0e1c3f" cx="255.6" cy="106" r="1.3"/>
			<circle fill="#0e1c3f" cx="307.4" cy="78.5" r="1.3"/>
			<circle fill="#0e1c3f" cx="88.3" cy="194.6" r="1.3"/>
			<circle fill="#0e1c3f" cx="95.2" cy="83.7" r="1.3"/>
			<circle fill="#0e1c3f" cx="25.4" cy="82.4" r="1.3"/>
			<circle fill="#0e1c3f" cx="95.2" cy="83.7" r="1.3"/>
			<circle fill="#0e1c3f" cx="27.9" cy="81.7" r="1.3"/>
			<circle fill="#0e1c3f" cx="95.2" cy="83.7" r="1.3"/>
			<circle fill="#0e1c3f" cx="88.6" cy="163.2" r="1.3"/>
			<circle fill="#0e1c3f" cx="95.2" cy="83.7" r="1.3"/>
			<circle fill="#0e1c3f" cx="95.2" cy="83.7" r="1.3"/>
			<circle fill="#0e1c3f" cx="172.6" cy="184.8" r="1.3"/>
			<circle fill="#0e1c3f" cx="88.3" cy="194.6" r="1.3"/>
			<circle fill="#0e1c3f" cx="172.6" cy="184.8" r="1.3"/>
			<circle fill="#0e1c3f" cx="88.6" cy="163.2" r="1.3"/>
			<circle fill="#0e1c3f" cx="172.6" cy="184.8" r="1.3"/>
			<circle fill="#0e1c3f" cx="255.6" cy="106" r="1.3"/>
			<circle fill="#0e1c3f" cx="172.6" cy="184.8" r="1.3"/>
			<circle fill="#0e1c3f" cx="255.6" cy="106" r="1.3"/>
			<circle fill="#0e1c3f" cx="172.6" cy="184.8" r="1.3"/>
			<circle fill="#0e1c3f" cx="172.6" cy="184.8" r="1.3"/>
			<circle fill="#0e1c3f" cx="188.1" cy="98.6" r="1.3"/>
			<circle fill="#0e1c3f" cx="95.2" cy="83.7" r="1.3"/>
			<circle fill="#0e1c3f" cx="188.1" cy="98.6" r="1.3"/>
			<circle fill="#0e1c3f" cx="307.4" cy="78.5" r="1.3"/>
			<circle fill="#0e1c3f" cx="188.1" cy="98.6" r="1.3"/>
			<circle fill="#0e1c3f" cx="88.6" cy="163.2" r="1.3"/>
			<circle fill="#0e1c3f" cx="188.1" cy="98.6" r="1.3"/>
			<circle fill="#0e1c3f" cx="255.6" cy="106" r="1.3"/>
			<circle fill="#0e1c3f" cx="188.1" cy="98.6" r="1.3"/>
			<circle fill="#0e1c3f" cx="255.6" cy="106" r="1.3"/>
			<circle fill="#0e1c3f" cx="188.1" cy="98.6" r="1.3"/>
			<circle fill="#0e1c3f" cx="307.4" cy="78.5" r="1.3"/>
			<circle fill="#0e1c3f" cx="255.6" cy="106" r="1.3"/>
			<circle fill="#0e1c3f" cx="255.6" cy="106" r="1.3"/>
			<circle fill="#0e1c3f" cx="172.6" cy="184.8" r="1.3"/>
			<circle fill="#0e1c3f" cx="61.3" cy="223" r="1.3"/>
			<circle fill="#0e1c3f" cx="88.3" cy="194.6" r="1.3"/>
			<circle fill="#0e1c3f" cx="61.3" cy="223" r="1.3"/>
			<circle fill="#0e1c3f" cx="88.6" cy="163.2" r="1.3"/>
			<circle fill="#0e1c3f" cx="61.3" cy="223" r="1.3"/>
			<circle fill="#0e1c3f" cx="61.3" cy="223" r="1.3"/>
			<circle fill="#0e1c3f" cx="61.3" cy="223" r="1.3"/>
			<circle fill="#0e1c3f" cx="88.3" cy="194.6" r="1.3"/>
			<circle fill="#0e1c3f" cx="25.4" cy="82.4" r="1.3"/>
			<circle fill="#0e1c3f" cx="27.9" cy="81.7" r="1.3"/>
			<circle fill="#0e1c3f" cx="88.6" cy="163.2" r="1.3"/>
			<circle fill="#0e1c3f" cx="260.9" cy="198.3" r="1.3"/>
			<circle fill="#0e1c3f" cx="188.1" cy="98.6" r="1.3"/>
			<circle fill="#0e1c3f" cx="260.9" cy="198.3" r="1.3"/>
			<circle fill="#0e1c3f" cx="172.6" cy="184.8" r="1.3"/>
			<circle fill="#0e1c3f" cx="260.9" cy="198.3" r="1.3"/>
			<circle fill="#0e1c3f" cx="307.4" cy="78.5" r="1.3"/>
			<circle fill="#0e1c3f" cx="260.9" cy="198.3" r="1.3"/>
			<circle fill="#0e1c3f" cx="260.9" cy="198.3" r="1.3"/>
			<circle fill="#0e1c3f" cx="255.6" cy="106" r="1.3"/>
			<circle fill="#0e1c3f" cx="260.9" cy="198.3" r="1.3"/>
			<circle fill="#0e1c3f" cx="255.6" cy="106" r="1.3"/>
			<circle fill="#0e1c3f" cx="260.9" cy="198.3" r="1.3"/>
			<circle fill="#0e1c3f" cx="307.4" cy="78.5" r="1.3"/>
			<circle fill="#0e1c3f" cx="307.4" cy="78.5" r="1.3"/>
		</g>
	</g>
</g>
</svg>
