<?xml version="1.0" encoding="utf-8"?>
<!-- Generator: Adobe Illustrator 18.1.1, SVG Export Plug-In . SVG Version: 6.00 Build 0)  -->
<svg version="1.0" id="Logo_BitRewards" xmlns="http://www.w3.org/2000/svg" xmlns:xlink="http://www.w3.org/1999/xlink" x="0px"
	 y="0px" viewBox="100.7 50.6 428.7 115.3" enable-background="new 100.7 50.6 428.7 115.3" xml:space="preserve">
<g id="color_-_dark_background_1_">
	<g>
			<linearGradient id="SVGID_1_" gradientUnits="userSpaceOnUse" x1="120.4929" y1="-37.1774" x2="170.3761" y2="-87.0607" gradientTransform="matrix(1.0705 0 0 1.0705 -10.1241 162.5214)">
			<stop  offset="0" style="stop-color:#FF5643"/>
			<stop  offset="1" style="stop-color:#FFA14A"/>
		</linearGradient>
		<path fill="url(#SVGID_1_)" d="M130.2,100.5c0-5.1,4.2-9.3,9.3-9.3c5.1,0,9.3,4.2,9.3,9.3c0,1.2-0.2,2.4-0.7,3.4l11.8,8.9
			c1.4-1,3.2-1.5,5.1-1.5c0.7,0,1.4,0.1,2.1,0.2l9.2-15.7c-3.4-3-5.7-7.5-5.7-12.4c0-4.3,1.6-8.1,4.3-11.1l-10.6-6.1
			c-4.7-2.7-10.5-2.7-15.2,0L125.2,80c-4.7,2.7-7.5,7.7-7.5,13.2c0,0,0,28.3,0,28.7c1.2-0.9,2.5-1.6,4-1.8c0.5-0.1,1.2-0.2,1.8-0.2
			c0.4,0,1.1,0,1.5,0.1l7.6-13C131.2,105.2,130.2,102.9,130.2,100.5z"/>

			<linearGradient id="SVGID_2_" gradientUnits="userSpaceOnUse" x1="139.3368" y1="-15.5406" x2="188.4727" y2="-64.6765" gradientTransform="matrix(1.0705 0 0 1.0705 -10.1241 162.5214)">
			<stop  offset="0" style="stop-color:#FF5643"/>
			<stop  offset="1" style="stop-color:#FFA14A"/>
		</linearGradient>
		<path fill="url(#SVGID_2_)" d="M187.2,99.9c-2,0-4.1-0.4-5.9-1.1l-9.1,15.8c1.4,1.7,2.2,3.6,2.2,6.1c0,5.1-4.2,9.3-9.3,9.3
			c-5.1,0-9.3-4.2-9.3-9.3c0-1.2,0.2-2.2,0.6-3.3l-11.7-9.2c-1.4,1.1-3.3,1.7-5.2,1.7c-0.7,0-1.3-0.1-1.9-0.2l-7.6,12.8
			c0.9,0.9,1.5,1.8,1.9,2.9c0.4,1.2,0.7,2.4,0.7,3.6c0,2.9-1.3,5.5-3.3,7.2l19.6,11.3c4.7,2.7,10.5,2.7,15.2,0l23.9-13.8
			c4.7-2.7,7.6-7.7,7.6-13.2V97.3C193.3,99,190.4,99.9,187.2,99.9z"/>
	</g>
	<circle fill="#FFA14A" cx="187.2" cy="83.2" r="9.6"/>
	<g>
		<path fill="#FFFFFF" d="M232.5,128.2h-15.3V89.9c0-2.5,3.2-4.5,5.7-4.5h4.7c2.7,0,5,0.1,7,0.4c2,0.3,3.7,0.9,5,1.6
			c1.4,0.7,2.4,1.9,3.1,3.3c0.6,1.4,1.1,3.2,1.1,5.4c0,2-0.2,3.7-0.7,5.1c-0.4,1.4-1.4,2.8-2.9,4.2c2.6,1,4.5,2.2,5.6,3.9
			c1.1,1.7,1.7,3.7,1.7,6.3C247.4,124,242.5,128.2,232.5,128.2z M229.7,91.1H226c-1.3,0-2.2,1-2.2,2.2v9.6h7.4
			c0.7,0,1.5-0.1,2.2-0.2c0.7-0.1,1.4-0.4,2-0.9s1.1-1.1,1.4-1.8c0.3-0.9,0.5-1.9,0.5-3.3c0-2.4-0.6-3.9-1.9-4.6
			C234.2,91.5,232.2,91.1,229.7,91.1z M232.5,108.6H226c-1.3,0-2.2,1-2.2,2.2v11.7h6.6c3.5,0,6.2-0.4,7.9-1.4
			c1.7-0.9,2.6-2.7,2.6-5.4C240.7,111,238,108.6,232.5,108.6z"/>
		<path fill="#FFFFFF" d="M256.5,92.2c1.7,0,3.1-1.4,3.1-3.1l0,0c0-1.7-1.4-3.1-3.1-3.1s-3.1,1.4-3.1,3.1l0,0
			C253.4,90.9,254.8,92.2,256.5,92.2z"/>
		<path fill="#FFFFFF" d="M259.5,98.5h-1.9h-0.1h-0.1c-2.1,0-4,1.7-4,4v25.8h1.7c2.5,0,4.5-2,4.5-4.5v-17.2v-1v-7.1H259.5z"/>
		<path fill="#FFFFFF" d="M279.8,103.5c2.5,0,4.5-2,4.5-4.5v-0.4h-7.4v-7.7l-2.1,0.2c-2.2,0.2-4.1,2.1-4.1,4.5v3.1h-2.2
			c-2.5,0-4.5,2-4.5,4.5v0.4h6.7v18.1c0,2,0.6,3.7,1.9,5.2c1.3,1.4,3.1,1.5,5.8,1.5h1c2.4,0,4.4-1.9,4.7-4.3V124h-1.6
			c-1.3,0-2.4,0-3.1-0.1c-0.7-0.1-1.3-0.3-1.7-0.6c-0.4-0.4-0.6-1-0.6-1.7c-0.1-0.7-0.1-1.8-0.1-3.1v-14.9L279.8,103.5L279.8,103.5
			L279.8,103.5z"/>
		<path fill="#F2793F" d="M322.5,128.2h-4.3c-1.6,0-3.1-0.9-4-2.4l-8-14.1h-6.4c-1.3,0-2.2,1-2.2,2.2v9.6c0,2.5-2,4.5-4.5,4.5h-2
			V89.7c0-2.5,2-4.5,4.5-4.5h10c4.7,0,8.3,1,10.9,2.9c2.6,1.9,3.9,5.1,3.9,9.6c0,5.5-2.6,9.5-7.7,12.2L322.5,128.2z M304.7,90.8
			h-4.8c-1.3,0-2.2,1-2.2,2.2v12.6h8.1c2.4,0,4.3-0.6,5.7-1.8c1.4-1.2,2.1-3.1,2.1-5.7C313.4,93.2,310.5,90.8,304.7,90.8z"/>
		<path fill="#F2793F" d="M349.6,113.4h-15.1c-1.5,0-2.6,1.4-2.1,2.8c1.3,4.5,4.6,6.7,9.8,6.7c3.1,0,6-0.6,8.8-2l0.2,1.5
			c0.2,2.1-1.1,4.2-3.1,4.8c-2.1,0.6-4.3,1-6.4,1c-2.6,0-4.8-0.4-6.9-1.2c-2-0.9-3.7-1.9-5-3.3c-1.4-1.4-2.5-3-3.1-4.9
			c-0.6-1.9-1.1-4-1.1-6.2c0-2.1,0.3-4.2,1.1-6c0.6-1.8,1.6-3.5,2.9-4.9c1.3-1.4,2.8-2.5,4.6-3.2c1.8-0.7,3.7-1.2,6-1.2
			c1.9,0,3.6,0.3,5.2,0.9c1.6,0.6,3,1.5,4.1,2.6c1.2,1.1,2,2.5,2.7,4c0.6,1.6,1,3.3,1,5.2l0,0C352.9,111.9,351.5,113.4,349.6,113.4z
			 M340,102.6c-4.2,0-6.7,2.1-7.8,6.5h14.5c0-1.9-0.5-3.5-1.6-4.7C343.9,103.3,342.3,102.6,340,102.6z"/>
		<path fill="#F2793F" d="M399.2,98.5l-7.9,26.5c-0.5,1.9-2.4,3.2-4.3,3.2h-2.8l-6.2-21.1l-5.2,17.9c-0.5,1.9-2.4,3.2-4.3,3.2h-2.8
			l-8.8-29.8h3.2c2,0,3.9,1.4,4.4,3.4l4.7,19.3l5.4-19.1c0.4-1.6,1.9-2.8,3.6-2.8l0,0c1.7,0,3.2,1.2,3.6,2.8l5.4,19.1l4.7-19.3
			c0.5-2,2.2-3.4,4.4-3.4h2.9V98.5z"/>
		<path fill="#F2793F" d="M430,123.4l-0.7,4.9h-1.2c-2.1,0-3.7-0.3-4.8-1c-0.4-0.3-0.9-0.6-1.3-1.2c-0.7-0.9-2.1-1-3.1-0.2
			c-2,1.5-4.4,2.4-7.3,2.4c-1.3,0-2.6-0.2-3.6-0.6c-1.1-0.4-2-1-2.8-1.8c-0.7-0.7-1.4-1.7-1.8-2.8c-0.4-1.1-0.6-2.2-0.6-3.6
			c0-2,0.5-3.6,1.7-5c1.2-1.4,2.6-2.5,4.3-3.2c1.7-0.9,3.6-1.4,5.7-1.7c2-0.3,4-0.5,5.8-0.5c0-2.4-0.5-4-1.5-4.8
			c-1-0.8-2.5-1.3-4.6-1.3c-2.6,0-5.2,0.9-7.9,2.5l-0.7-4.9c3-1.9,6.4-3,10.4-3c3.7,0,6.4,1.1,8,3.1c1.7,2,2.5,5.6,2.5,10.4v6.7
			c0,1.2,0,2,0.1,2.8c0.1,0.7,0.2,1.3,0.4,1.7c0.2,0.4,0.5,0.7,1,0.9c0.4,0.2,1,0.3,1.6,0.3h0.6v-0.1H430z M420,118.2v-5.1
			c-7.4,0.3-11.1,2.4-11.1,6.1c0,2.8,1.5,4.2,4.4,4.2c1.9,0,3.5-0.5,5-1.7C419.4,120.9,420,119.6,420,118.2z"/>
		<path fill="#F2793F" d="M451.8,97.1l-1.3,6.3h-2.1c-0.6,0-1.2,0.1-1.8,0.3c-0.6,0.2-1.3,0.4-1.8,0.7c-0.5,0.3-1.1,0.6-1.6,1.1l0,0
			c-0.6,0.6-1.1,1.5-1.1,2.4v15.8c0,2.5-2,4.5-4.5,4.5h-1.9v-25.9c0-2.5,2-4.5,4.5-4.5h1.4v4.3c3.1-3.4,6.2-5.1,9.3-5.1h1v0.1H451.8
			z"/>
		<path fill="#F2793F" d="M482.9,123.2c0,2.5-2,4.5-4.5,4.5h-1.6v-3c-1.1,1.2-2.4,2-3.9,2.7c-1.5,0.6-3.1,1-4.6,1
			c-2,0-4-0.4-5.6-1.2c-1.7-0.9-3.1-1.9-4.4-3.3c-1.2-1.4-2.1-3-2.9-4.9c-0.6-1.8-1.1-3.9-1.1-6.1c0-2.1,0.3-4.2,1-6
			c0.6-1.8,1.6-3.5,2.8-4.9s2.7-2.6,4.4-3.3c1.7-0.9,3.6-1.3,5.8-1.3c3.5,0,6.3,1.1,8.3,3.1V89.9c0-2.5,2-4.5,4.5-4.5h1.6
			L482.9,123.2z M468.9,102.6c-1.2,0-2.4,0.2-3.3,0.7c-1,0.5-1.8,1.2-2.6,2c-0.6,0.9-1.2,1.9-1.6,3.2c-0.4,1.3-0.5,2.7-0.5,4.2
			c0,1.5,0.2,2.8,0.5,4.1c0.4,1.3,1,2.4,1.6,3.2c0.6,0.9,1.5,1.6,2.6,2.1c1,0.5,2.1,0.7,3.3,0.7c2.5,0,4.4-0.9,6-2.6
			c1.6-1.7,2.5-4.2,2.5-7.5c0-1.6-0.2-3-0.6-4.3c-0.4-1.3-1.1-2.4-1.8-3.2c-0.7-0.8-1.6-1.6-2.7-2
			C471.2,102.8,470.1,102.6,468.9,102.6z"/>
		<path fill="#F2793F" d="M500.9,128.3c-4.5,0-7.8-0.7-10.2-2.4l0.6-5.9l1.8,1c0.7,0.3,1.5,0.6,2.2,1c0.9,0.3,1.7,0.5,2.6,0.6
			c0.9,0.2,1.8,0.3,2.7,0.3c1.7,0,3-0.3,3.7-1c0.9-0.6,1.2-1.5,1.2-2.5c0-1-0.4-1.8-1.3-2.5c-0.9-0.6-1.9-1.2-3.1-1.7
			c-1.2-0.5-2.5-1-3.9-1.4c-1.4-0.4-2.5-0.9-3.3-1.4c-1.9-1.2-3-3.2-3-6c0-1.2,0.2-2.4,0.6-3.5c0.4-1.2,1.1-2.1,2-3
			c0.9-0.9,2-1.6,3.4-2c1.4-0.5,3-0.7,4.9-0.7c3.6,0,6.6,0.7,9,2.1l0,0c-0.3,2.5-2.7,4.1-5,3.4c-1.1-0.3-2.2-0.5-3.5-0.5
			c-1.5,0-2.8,0.3-3.7,0.9c-1,0.5-1.5,1.5-1.5,2.7c0,0.9,0.2,1.5,0.5,1.9c0.4,0.5,0.9,0.9,1.5,1.2s1.4,0.5,2.2,0.7
			c0.9,0.2,1.7,0.4,2.6,0.6c5.6,1.4,8.3,4.4,8.3,9.1c0,1-0.1,1.9-0.4,3c-0.3,1.1-0.9,1.9-1.7,2.9c-0.9,0.9-2,1.6-3.5,2.1
			C505.4,128,503.4,128.3,500.9,128.3z"/>
	</g>
</g>
</svg>
