<?xml version="1.0" encoding="utf-8"?>
<!-- Generator: Adobe Illustrator 18.1.1, SVG Export Plug-In . SVG Version: 6.00 Build 0)  -->
<svg version="1.1" xmlns="http://www.w3.org/2000/svg" xmlns:xlink="http://www.w3.org/1999/xlink" x="0px" y="0px"
	 viewBox="0 0 288 288" enable-background="new 0 0 288 288" xml:space="preserve">
<g>
	<g>
		<g>
			<g>
				<g>

						<rect x="99.3" y="59.2" transform="matrix(0.1794 0.9838 -0.9838 0.1794 176.7232 -18.5279)" fill="#223771" width="0.3" height="74.9"/>
				</g>
				<g>

						<rect x="99.3" y="59.2" transform="matrix(0.1794 0.9838 -0.9838 0.1794 176.7232 -18.5279)" fill="#223771" width="0.3" height="74.9"/>
				</g>
			</g>
			<g>
				<g>

						<rect x="137.1" y="59.4" transform="matrix(0.998 6.252801e-002 -6.252801e-002 0.998 4.9379 -8.4358)" fill="#223771" width="0.2" height="30.6"/>
				</g>
				<g>

						<rect x="100.3" y="37.7" transform="matrix(0.5042 0.8636 -0.8636 0.5042 120.0959 -46.3659)" fill="#223771" width="0.2" height="87.4"/>
				</g>
				<g>

						<rect x="100.3" y="37.7" transform="matrix(0.5042 0.8636 -0.8636 0.5042 120.0959 -46.3659)" fill="#223771" width="0.2" height="87.4"/>
				</g>
			</g>
			<g>
				<g>

						<rect x="126.2" y="53.2" transform="matrix(0.5709 0.821 -0.821 0.5709 109.7704 -74.6911)" fill="#223771" width="0.2" height="28.9"/>
				</g>
				<g>

						<rect x="112.4" y="82.8" transform="matrix(0.8414 0.5403 -0.5403 0.8414 64.69 -54.5998)" fill="#223771" width="25.9" height="0.2"/>
				</g>
				<g>

						<rect x="88.4" y="60.3" transform="matrix(0.469 0.8832 -0.8832 0.469 126.2146 -30.6041)" fill="#223771" width="0.2" height="58.7"/>
				</g>
				<g>

						<rect x="88.4" y="60.3" transform="matrix(0.469 0.8832 -0.8832 0.469 126.2146 -30.6041)" fill="#223771" width="0.2" height="58.7"/>
				</g>
			</g>
			<g>
				<g>
					<polygon fill="#223771" points="-16.1,178.3 62.7,103.5 62.6,103.3 -16.1,178 					"/>
				</g>
				<g>
					<polygon fill="#223771" points="-16.1,178.3 62.7,103.5 62.6,103.3 -16.1,178 					"/>
				</g>
			</g>
			<g>
				<g>
					<polygon fill="#223771" points="-16.1,159 -4.7,96 -5,96 -16.1,157.6 					"/>
				</g>
				<g>
					<polygon fill="#223771" points="-16.1,94.1 -16.1,94.3 -4.9,96.1 -4.8,95.9 					"/>
				</g>
				<g>

						<rect x="54.7" y="25.5" transform="matrix(0.1682 0.9857 -0.9857 0.1682 130.327 17.4872)" fill="#223771" width="0.2" height="121"/>
				</g>
				<g>
					<polygon fill="#223771" points="-16.1,103.4 -4.8,96.1 -4.9,95.9 -16.1,103.1 					"/>
				</g>
				<g>

						<rect x="-5.1" y="99.6" transform="matrix(0.9941 0.1088 -0.1088 0.9941 11.0165 -2.5505)" fill="#223771" width="67.9" height="0.2"/>
				</g>
				<g>

						<rect x="-5.1" y="99.6" transform="matrix(0.9941 0.1088 -0.1088 0.9941 11.0165 -2.5505)" fill="#223771" width="67.9" height="0.2"/>
				</g>
			</g>
			<g>
				<g>

						<rect x="69.1" y="128.6" transform="matrix(0.1503 0.9886 -0.9886 0.1503 231.3278 -11.7402)" fill="#223771" width="106.8" height="0.3"/>
				</g>
				<g>

						<rect x="134.2" y="59.3" transform="matrix(0.998 6.267653e-002 -6.267653e-002 0.998 7.8136 -8.1846)" fill="#223771" width="0.3" height="122.3"/>
				</g>
				<g>

						<rect x="133.3" y="89.8" transform="matrix(0.998 6.292725e-002 -6.292725e-002 0.998 8.8041 -8.1256)" fill="#223771" width="0.2" height="91.7"/>
				</g>
				<g>

						<rect x="44.9" y="142.3" transform="matrix(0.656 0.7547 -0.7547 0.656 140.7244 -23.8979)" fill="#223771" width="103.5" height="0.2"/>
				</g>
				<g>

						<rect x="44.9" y="142.3" transform="matrix(0.656 0.7547 -0.7547 0.656 140.7244 -23.8979)" fill="#223771" width="103.5" height="0.2"/>
				</g>
			</g>
			<g>
				<g>

						<rect x="99.1" y="156.6" transform="matrix(0.2186 0.9758 -0.9758 0.2186 261.6251 50.5347)" fill="#223771" width="0.3" height="64.1"/>
				</g>
				<g>

						<rect x="-30.2" y="145.8" transform="matrix(0.5899 0.8075 -0.8075 0.5899 130.7477 34.3386)" fill="#223771" width="123.5" height="0.3"/>
				</g>
				<g>
					<polygon fill="#223771" points="-16.1,182.8 -16.1,183 68,195.9 68,195.6 					"/>
				</g>
				<g>

						<rect x="91.1" y="71.6" transform="matrix(0.9325 0.3612 -0.3612 0.9325 55.2295 -23.7849)" fill="#223771" width="0.3" height="128.5"/>
				</g>
				<g>

						<rect x="102" y="79.9" transform="matrix(0.8409 0.5412 -0.5412 0.8409 93.5621 -32.5533)" fill="#223771" width="0.3" height="125.9"/>
				</g>
				<g>

						<rect x="19.1" y="149.5" transform="matrix(5.790779e-002 0.9983 -0.9983 5.790779e-002 210.8761 75.707)" fill="#223771" width="92.5" height="0.3"/>
				</g>
				<g>

						<rect x="19.1" y="149.5" transform="matrix(5.790779e-002 0.9983 -0.9983 5.790779e-002 210.8761 75.707)" fill="#223771" width="92.5" height="0.3"/>
				</g>
			</g>
			<g>
				<g>
					<polygon fill="#223771" points="295.9,104.5 202.1,54.2 202,54.4 295.9,104.7 					"/>
				</g>
				<g>

						<rect x="158.1" y="20" transform="matrix(0.2419 0.9703 -0.9703 0.2419 183.1479 -104.2058)" fill="#223771" width="0.3" height="90.2"/>
				</g>
				<g>

						<rect x="170" y="24.8" transform="matrix(8.602531e-002 0.9963 -0.9963 8.602531e-002 212.1301 -117.5412)" fill="#223771" width="0.2" height="64"/>
				</g>
				<g>

						<rect x="169" y="34.7" transform="matrix(0.4767 0.8791 -0.8791 0.4767 151.9053 -110.9762)" fill="#223771" width="0.3" height="74.8"/>
				</g>
			</g>
			<g>
				<g>

						<rect x="129.6" y="189.4" transform="matrix(0.9744 0.2247 -0.2247 0.9744 46.8185 -32.3491)" fill="#223771" width="71.9" height="0.2"/>
				</g>
				<g>

						<rect x="105.7" y="143.7" transform="matrix(0.5127 0.8586 -0.8586 0.5127 205.5303 -74.5577)" fill="#223771" width="125.5" height="0.3"/>
				</g>
			</g>
			<g>
				<g>

						<rect x="212.3" y="136.7" transform="matrix(0.9273 0.3743 -0.3743 0.9273 78.4325 -67.267)" fill="#223771" width="0.3" height="63.2"/>
				</g>
				<g>

						<rect x="169.4" y="96.5" transform="matrix(0.2532 0.9674 -0.9674 0.2532 252.6447 -134.0227)" fill="#223771" width="87.6" height="0.3"/>
				</g>
				<g>
					<polygon fill="#223771" points="295.9,116.6 224.2,138.9 224.2,139.1 295.9,116.9 					"/>
				</g>
				<g>

						<rect x="177.2" y="108.8" transform="matrix(0.4141 0.9102 -0.9102 0.4141 249.7594 -67.5639)" fill="#223771" width="0.2" height="102.9"/>
				</g>
				<g>

						<rect x="106.1" y="107.3" transform="matrix(0.8671 0.4982 -0.4982 0.8671 76.0377 -70.0792)" fill="#223771" width="126.6" height="0.3"/>
				</g>
				<g>

						<rect x="122.6" y="99.1" transform="matrix(0.7341 0.6791 -0.6791 0.7341 115.5506 -96.6762)" fill="#223771" width="117.2" height="0.3"/>
				</g>
				<g>

						<rect x="129.9" y="114.3" transform="matrix(0.8733 0.4871 -0.4871 0.8733 78.5834 -73.3055)" fill="#223771" width="100.7" height="0.3"/>
				</g>
			</g>
			<g>
				<g>
					<polygon fill="#223771" points="295.9,157.6 224.2,138.9 224.2,139.1 295.9,157.9 					"/>
				</g>
			</g>
			<g>
				<g>
					<polygon fill="#223771" points="295.9,187.2 248.3,202.5 248.4,202.8 295.9,187.5 					"/>
				</g>
				<g>

						<rect x="202.2" y="170.7" transform="matrix(0.3547 0.935 -0.935 0.3547 312.1962 -110.6964)" fill="#223771" width="68.1" height="0.2"/>
				</g>
				<g>

						<rect x="200.5" y="200" transform="matrix(0.9945 0.1046 -0.1046 0.9945 22.1691 -22.3852)" fill="#223771" width="48" height="0.3"/>
				</g>
				<g>
					<polygon fill="#223771" points="295.9,133.1 248.3,202.6 248.5,202.7 295.9,133.5 					"/>
				</g>
				<g>

						<rect x="129.6" y="191.9" transform="matrix(0.9842 0.1769 -0.1769 0.9842 36.9677 -30.4848)" fill="#223771" width="119.7" height="0.2"/>
				</g>
			</g>
		</g>
		<g>
			<circle fill="#223771" cx="62.6" cy="103.4" r="1.3"/>
			<circle fill="#223771" cx="136.3" cy="89.9" r="1.3"/>
			<circle fill="#223771" cx="62.6" cy="103.4" r="1.3"/>
			<circle fill="#223771" cx="136.3" cy="89.9" r="1.3"/>
			<circle fill="#223771" cx="136.3" cy="89.9" r="1.3"/>
			<circle fill="#223771" cx="138.2" cy="59.4" r="1.3"/>
			<circle fill="#223771" cx="62.6" cy="103.4" r="1.3"/>
			<circle fill="#223771" cx="138.2" cy="59.4" r="1.3"/>
			<circle fill="#223771" cx="62.6" cy="103.4" r="1.3"/>
			<circle fill="#223771" cx="138.2" cy="59.4" r="1.3"/>
			<circle fill="#223771" cx="138.2" cy="59.4" r="1.3"/>
			<circle fill="#223771" cx="114.5" cy="75.9" r="1.3"/>
			<circle fill="#223771" cx="136.3" cy="89.9" r="1.3"/>
			<circle fill="#223771" cx="114.5" cy="75.9" r="1.3"/>
			<circle fill="#223771" cx="62.6" cy="103.4" r="1.3"/>
			<circle fill="#223771" cx="114.5" cy="75.9" r="1.3"/>
			<circle fill="#223771" cx="62.6" cy="103.4" r="1.3"/>
			<circle fill="#223771" cx="114.5" cy="75.9" r="1.3"/>
			<circle fill="#223771" cx="62.6" cy="103.4" r="1.3"/>
			<circle fill="#223771" cx="62.6" cy="103.4" r="1.3"/>
			<circle fill="#223771" cx="-4.9" cy="96" r="1.3"/>
			<circle fill="#223771" cx="-4.9" cy="96" r="1.3"/>
			<circle fill="#223771" cx="114.5" cy="75.9" r="1.3"/>
			<circle fill="#223771" cx="-4.9" cy="96" r="1.3"/>
			<circle fill="#223771" cx="-4.9" cy="96" r="1.3"/>
			<circle fill="#223771" cx="62.6" cy="103.4" r="1.3"/>
			<circle fill="#223771" cx="-4.9" cy="96" r="1.3"/>
			<circle fill="#223771" cx="62.6" cy="103.4" r="1.3"/>
			<circle fill="#223771" cx="-4.9" cy="96" r="1.3"/>
			<circle fill="#223771" cx="114.5" cy="75.9" r="1.3"/>
			<circle fill="#223771" cx="130.5" cy="181.5" r="1.3"/>
			<circle fill="#223771" cx="138.2" cy="59.4" r="1.3"/>
			<circle fill="#223771" cx="130.5" cy="181.5" r="1.3"/>
			<circle fill="#223771" cx="136.3" cy="89.9" r="1.3"/>
			<circle fill="#223771" cx="130.5" cy="181.5" r="1.3"/>
			<circle fill="#223771" cx="62.6" cy="103.4" r="1.3"/>
			<circle fill="#223771" cx="130.5" cy="181.5" r="1.3"/>
			<circle fill="#223771" cx="62.6" cy="103.4" r="1.3"/>
			<circle fill="#223771" cx="130.5" cy="181.5" r="1.3"/>
			<circle fill="#223771" cx="130.5" cy="181.5" r="1.3"/>
			<circle fill="#223771" cx="68" cy="195.8" r="1.3"/>
			<circle fill="#223771" cx="-4.9" cy="96" r="1.3"/>
			<circle fill="#223771" cx="68" cy="195.8" r="1.3"/>
			<circle fill="#223771" cx="68" cy="195.8" r="1.3"/>
			<circle fill="#223771" cx="114.5" cy="75.9" r="1.3"/>
			<circle fill="#223771" cx="68" cy="195.8" r="1.3"/>
			<circle fill="#223771" cx="136.3" cy="89.9" r="1.3"/>
			<circle fill="#223771" cx="68" cy="195.8" r="1.3"/>
			<circle fill="#223771" cx="62.6" cy="103.4" r="1.3"/>
			<circle fill="#223771" cx="68" cy="195.8" r="1.3"/>
			<circle fill="#223771" cx="62.6" cy="103.4" r="1.3"/>
			<circle fill="#223771" cx="68" cy="195.8" r="1.3"/>
			<circle fill="#223771" cx="202" cy="54.3" r="1.3"/>
			<circle fill="#223771" cx="114.5" cy="75.9" r="1.3"/>
			<circle fill="#223771" cx="202" cy="54.3" r="1.3"/>
			<circle fill="#223771" cx="138.2" cy="59.4" r="1.3"/>
			<circle fill="#223771" cx="202" cy="54.3" r="1.3"/>
			<circle fill="#223771" cx="136.3" cy="89.9" r="1.3"/>
			<circle fill="#223771" cx="202" cy="54.3" r="1.3"/>
			<circle fill="#223771" cx="130.5" cy="181.5" r="1.3"/>
			<circle fill="#223771" cx="200.6" cy="197.6" r="1.3"/>
			<circle fill="#223771" cx="136.3" cy="89.9" r="1.3"/>
			<circle fill="#223771" cx="200.6" cy="197.6" r="1.3"/>
			<circle fill="#223771" cx="200.6" cy="197.6" r="1.3"/>
			<circle fill="#223771" cx="224.2" cy="139" r="1.3"/>
			<circle fill="#223771" cx="202" cy="54.3" r="1.3"/>
			<circle fill="#223771" cx="224.2" cy="139" r="1.3"/>
			<circle fill="#223771" cx="224.2" cy="139" r="1.3"/>
			<circle fill="#223771" cx="130.5" cy="181.5" r="1.3"/>
			<circle fill="#223771" cx="224.2" cy="139" r="1.3"/>
			<circle fill="#223771" cx="114.5" cy="75.9" r="1.3"/>
			<circle fill="#223771" cx="224.2" cy="139" r="1.3"/>
			<circle fill="#223771" cx="138.2" cy="59.4" r="1.3"/>
			<circle fill="#223771" cx="224.2" cy="139" r="1.3"/>
			<circle fill="#223771" cx="136.3" cy="89.9" r="1.3"/>
			<circle fill="#223771" cx="224.2" cy="139" r="1.3"/>
			<circle fill="#223771" cx="224.2" cy="139" r="1.3"/>
			<circle fill="#223771" cx="248.4" cy="202.7" r="1.3"/>
			<circle fill="#223771" cx="224.2" cy="139" r="1.3"/>
			<circle fill="#223771" cx="248.4" cy="202.7" r="1.3"/>
			<circle fill="#223771" cx="200.6" cy="197.6" r="1.3"/>
			<circle fill="#223771" cx="248.4" cy="202.7" r="1.3"/>
			<circle fill="#223771" cx="248.4" cy="202.7" r="1.3"/>
			<circle fill="#223771" cx="130.5" cy="181.5" r="1.3"/>
			<circle fill="#223771" cx="248.4" cy="202.7" r="1.3"/>
		</g>
	</g>
	<g>
		<g>
			<g>
				<g>

						<rect x="99.3" y="59.2" transform="matrix(0.1794 0.9838 -0.9838 0.1794 176.7232 -18.5279)" fill="#223771" width="0.3" height="74.9"/>
				</g>
				<g>

						<rect x="99.3" y="59.2" transform="matrix(0.1794 0.9838 -0.9838 0.1794 176.7232 -18.5279)" fill="#223771" width="0.3" height="74.9"/>
				</g>
			</g>
			<g>
				<g>

						<rect x="137.1" y="59.4" transform="matrix(0.998 6.252801e-002 -6.252801e-002 0.998 4.9379 -8.4358)" fill="#223771" width="0.2" height="30.6"/>
				</g>
				<g>

						<rect x="100.3" y="37.7" transform="matrix(0.5042 0.8636 -0.8636 0.5042 120.0959 -46.3659)" fill="#223771" width="0.2" height="87.4"/>
				</g>
				<g>

						<rect x="100.3" y="37.7" transform="matrix(0.5042 0.8636 -0.8636 0.5042 120.0959 -46.3659)" fill="#223771" width="0.2" height="87.4"/>
				</g>
			</g>
			<g>
				<g>

						<rect x="126.2" y="53.2" transform="matrix(0.5709 0.821 -0.821 0.5709 109.7704 -74.6911)" fill="#223771" width="0.2" height="28.9"/>
				</g>
				<g>

						<rect x="112.4" y="82.8" transform="matrix(0.8414 0.5403 -0.5403 0.8414 64.69 -54.5998)" fill="#223771" width="25.9" height="0.2"/>
				</g>
				<g>

						<rect x="88.4" y="60.3" transform="matrix(0.469 0.8832 -0.8832 0.469 126.2146 -30.6041)" fill="#223771" width="0.2" height="58.7"/>
				</g>
				<g>

						<rect x="88.4" y="60.3" transform="matrix(0.469 0.8832 -0.8832 0.469 126.2146 -30.6041)" fill="#223771" width="0.2" height="58.7"/>
				</g>
			</g>
			<g>
				<g>
					<polygon fill="#223771" points="-16.1,178.3 62.7,103.5 62.6,103.3 -16.1,178 					"/>
				</g>
				<g>
					<polygon fill="#223771" points="-16.1,178.3 62.7,103.5 62.6,103.3 -16.1,178 					"/>
				</g>
			</g>
			<g>
				<g>
					<polygon fill="#223771" points="-16.1,159 -4.7,96 -5,96 -16.1,157.6 					"/>
				</g>
				<g>
					<polygon fill="#223771" points="-16.1,94.1 -16.1,94.3 -4.9,96.1 -4.8,95.9 					"/>
				</g>
				<g>

						<rect x="54.7" y="25.5" transform="matrix(0.1682 0.9857 -0.9857 0.1682 130.327 17.4872)" fill="#223771" width="0.2" height="121"/>
				</g>
				<g>
					<polygon fill="#223771" points="-16.1,103.4 -4.8,96.1 -4.9,95.9 -16.1,103.1 					"/>
				</g>
				<g>

						<rect x="-5.1" y="99.6" transform="matrix(0.9941 0.1088 -0.1088 0.9941 11.0165 -2.5505)" fill="#223771" width="67.9" height="0.2"/>
				</g>
				<g>

						<rect x="-5.1" y="99.6" transform="matrix(0.9941 0.1088 -0.1088 0.9941 11.0165 -2.5505)" fill="#223771" width="67.9" height="0.2"/>
				</g>
			</g>
			<g>
				<g>

						<rect x="69.1" y="128.6" transform="matrix(0.1503 0.9886 -0.9886 0.1503 231.3278 -11.7402)" fill="#223771" width="106.8" height="0.3"/>
				</g>
				<g>

						<rect x="134.2" y="59.3" transform="matrix(0.998 6.267653e-002 -6.267653e-002 0.998 7.8136 -8.1846)" fill="#223771" width="0.3" height="122.3"/>
				</g>
				<g>

						<rect x="133.3" y="89.8" transform="matrix(0.998 6.292725e-002 -6.292725e-002 0.998 8.8041 -8.1256)" fill="#223771" width="0.2" height="91.7"/>
				</g>
				<g>

						<rect x="44.9" y="142.3" transform="matrix(0.656 0.7547 -0.7547 0.656 140.7244 -23.8979)" fill="#223771" width="103.5" height="0.2"/>
				</g>
				<g>

						<rect x="44.9" y="142.3" transform="matrix(0.656 0.7547 -0.7547 0.656 140.7244 -23.8979)" fill="#223771" width="103.5" height="0.2"/>
				</g>
			</g>
			<g>
				<g>

						<rect x="99.1" y="156.6" transform="matrix(0.2186 0.9758 -0.9758 0.2186 261.6251 50.5347)" fill="#223771" width="0.3" height="64.1"/>
				</g>
				<g>

						<rect x="-30.2" y="145.8" transform="matrix(0.5899 0.8075 -0.8075 0.5899 130.7477 34.3386)" fill="#223771" width="123.5" height="0.3"/>
				</g>
				<g>
					<polygon fill="#223771" points="-16.1,182.8 -16.1,183 68,195.9 68,195.6 					"/>
				</g>
				<g>

						<rect x="91.1" y="71.6" transform="matrix(0.9325 0.3612 -0.3612 0.9325 55.2295 -23.7849)" fill="#223771" width="0.3" height="128.5"/>
				</g>
				<g>

						<rect x="102" y="79.9" transform="matrix(0.8409 0.5412 -0.5412 0.8409 93.5621 -32.5533)" fill="#223771" width="0.3" height="125.9"/>
				</g>
				<g>

						<rect x="19.1" y="149.5" transform="matrix(5.790779e-002 0.9983 -0.9983 5.790779e-002 210.8761 75.707)" fill="#223771" width="92.5" height="0.3"/>
				</g>
				<g>

						<rect x="19.1" y="149.5" transform="matrix(5.790779e-002 0.9983 -0.9983 5.790779e-002 210.8761 75.707)" fill="#223771" width="92.5" height="0.3"/>
				</g>
			</g>
			<g>
				<g>
					<polygon fill="#223771" points="295.9,104.5 202.1,54.2 202,54.4 295.9,104.7 					"/>
				</g>
				<g>

						<rect x="158.1" y="20" transform="matrix(0.2419 0.9703 -0.9703 0.2419 183.1479 -104.2058)" fill="#223771" width="0.3" height="90.2"/>
				</g>
				<g>

						<rect x="170" y="24.8" transform="matrix(8.602531e-002 0.9963 -0.9963 8.602531e-002 212.1301 -117.5412)" fill="#223771" width="0.2" height="64"/>
				</g>
				<g>

						<rect x="169" y="34.7" transform="matrix(0.4767 0.8791 -0.8791 0.4767 151.9053 -110.9762)" fill="#223771" width="0.3" height="74.8"/>
				</g>
			</g>
			<g>
				<g>

						<rect x="129.6" y="189.4" transform="matrix(0.9744 0.2247 -0.2247 0.9744 46.8185 -32.3491)" fill="#223771" width="71.9" height="0.2"/>
				</g>
				<g>

						<rect x="105.7" y="143.7" transform="matrix(0.5127 0.8586 -0.8586 0.5127 205.5303 -74.5577)" fill="#223771" width="125.5" height="0.3"/>
				</g>
			</g>
			<g>
				<g>

						<rect x="212.3" y="136.7" transform="matrix(0.9273 0.3743 -0.3743 0.9273 78.4325 -67.267)" fill="#223771" width="0.3" height="63.2"/>
				</g>
				<g>

						<rect x="169.4" y="96.5" transform="matrix(0.2532 0.9674 -0.9674 0.2532 252.6447 -134.0227)" fill="#223771" width="87.6" height="0.3"/>
				</g>
				<g>
					<polygon fill="#223771" points="295.9,116.6 224.2,138.9 224.2,139.1 295.9,116.9 					"/>
				</g>
				<g>

						<rect x="177.2" y="108.8" transform="matrix(0.4141 0.9102 -0.9102 0.4141 249.7594 -67.5639)" fill="#223771" width="0.2" height="102.9"/>
				</g>
				<g>

						<rect x="106.1" y="107.3" transform="matrix(0.8671 0.4982 -0.4982 0.8671 76.0377 -70.0792)" fill="#223771" width="126.6" height="0.3"/>
				</g>
				<g>

						<rect x="122.6" y="99.1" transform="matrix(0.7341 0.6791 -0.6791 0.7341 115.5506 -96.6762)" fill="#223771" width="117.2" height="0.3"/>
				</g>
				<g>

						<rect x="129.9" y="114.3" transform="matrix(0.8733 0.4871 -0.4871 0.8733 78.5834 -73.3055)" fill="#223771" width="100.7" height="0.3"/>
				</g>
			</g>
			<g>
				<g>
					<polygon fill="#223771" points="295.9,157.6 224.2,138.9 224.2,139.1 295.9,157.9 					"/>
				</g>
			</g>
			<g>
				<g>
					<polygon fill="#223771" points="295.9,187.2 248.3,202.5 248.4,202.8 295.9,187.5 					"/>
				</g>
				<g>

						<rect x="202.2" y="170.7" transform="matrix(0.3547 0.935 -0.935 0.3547 312.1962 -110.6964)" fill="#223771" width="68.1" height="0.2"/>
				</g>
				<g>

						<rect x="200.5" y="200" transform="matrix(0.9945 0.1046 -0.1046 0.9945 22.1691 -22.3852)" fill="#223771" width="48" height="0.3"/>
				</g>
				<g>
					<polygon fill="#223771" points="295.9,133.1 248.3,202.6 248.5,202.7 295.9,133.5 					"/>
				</g>
				<g>

						<rect x="129.6" y="191.9" transform="matrix(0.9842 0.1769 -0.1769 0.9842 36.9677 -30.4848)" fill="#223771" width="119.7" height="0.2"/>
				</g>
			</g>
		</g>
		<g>
			<circle fill="#223771" cx="62.6" cy="103.4" r="1.3"/>
			<circle fill="#223771" cx="136.3" cy="89.9" r="1.3"/>
			<circle fill="#223771" cx="62.6" cy="103.4" r="1.3"/>
			<circle fill="#223771" cx="136.3" cy="89.9" r="1.3"/>
			<circle fill="#223771" cx="136.3" cy="89.9" r="1.3"/>
			<circle fill="#223771" cx="138.2" cy="59.4" r="1.3"/>
			<circle fill="#223771" cx="62.6" cy="103.4" r="1.3"/>
			<circle fill="#223771" cx="138.2" cy="59.4" r="1.3"/>
			<circle fill="#223771" cx="62.6" cy="103.4" r="1.3"/>
			<circle fill="#223771" cx="138.2" cy="59.4" r="1.3"/>
			<circle fill="#223771" cx="138.2" cy="59.4" r="1.3"/>
			<circle fill="#223771" cx="114.5" cy="75.9" r="1.3"/>
			<circle fill="#223771" cx="136.3" cy="89.9" r="1.3"/>
			<circle fill="#223771" cx="114.5" cy="75.9" r="1.3"/>
			<circle fill="#223771" cx="62.6" cy="103.4" r="1.3"/>
			<circle fill="#223771" cx="114.5" cy="75.9" r="1.3"/>
			<circle fill="#223771" cx="62.6" cy="103.4" r="1.3"/>
			<circle fill="#223771" cx="114.5" cy="75.9" r="1.3"/>
			<circle fill="#223771" cx="62.6" cy="103.4" r="1.3"/>
			<circle fill="#223771" cx="62.6" cy="103.4" r="1.3"/>
			<circle fill="#223771" cx="-4.9" cy="96" r="1.3"/>
			<circle fill="#223771" cx="-4.9" cy="96" r="1.3"/>
			<circle fill="#223771" cx="114.5" cy="75.9" r="1.3"/>
			<circle fill="#223771" cx="-4.9" cy="96" r="1.3"/>
			<circle fill="#223771" cx="-4.9" cy="96" r="1.3"/>
			<circle fill="#223771" cx="62.6" cy="103.4" r="1.3"/>
			<circle fill="#223771" cx="-4.9" cy="96" r="1.3"/>
			<circle fill="#223771" cx="62.6" cy="103.4" r="1.3"/>
			<circle fill="#223771" cx="-4.9" cy="96" r="1.3"/>
			<circle fill="#223771" cx="114.5" cy="75.9" r="1.3"/>
			<circle fill="#223771" cx="130.5" cy="181.5" r="1.3"/>
			<circle fill="#223771" cx="138.2" cy="59.4" r="1.3"/>
			<circle fill="#223771" cx="130.5" cy="181.5" r="1.3"/>
			<circle fill="#223771" cx="136.3" cy="89.9" r="1.3"/>
			<circle fill="#223771" cx="130.5" cy="181.5" r="1.3"/>
			<circle fill="#223771" cx="62.6" cy="103.4" r="1.3"/>
			<circle fill="#223771" cx="130.5" cy="181.5" r="1.3"/>
			<circle fill="#223771" cx="62.6" cy="103.4" r="1.3"/>
			<circle fill="#223771" cx="130.5" cy="181.5" r="1.3"/>
			<circle fill="#223771" cx="130.5" cy="181.5" r="1.3"/>
			<circle fill="#223771" cx="68" cy="195.8" r="1.3"/>
			<circle fill="#223771" cx="-4.9" cy="96" r="1.3"/>
			<circle fill="#223771" cx="68" cy="195.8" r="1.3"/>
			<circle fill="#223771" cx="68" cy="195.8" r="1.3"/>
			<circle fill="#223771" cx="114.5" cy="75.9" r="1.3"/>
			<circle fill="#223771" cx="68" cy="195.8" r="1.3"/>
			<circle fill="#223771" cx="136.3" cy="89.9" r="1.3"/>
			<circle fill="#223771" cx="68" cy="195.8" r="1.3"/>
			<circle fill="#223771" cx="62.6" cy="103.4" r="1.3"/>
			<circle fill="#223771" cx="68" cy="195.8" r="1.3"/>
			<circle fill="#223771" cx="62.6" cy="103.4" r="1.3"/>
			<circle fill="#223771" cx="68" cy="195.8" r="1.3"/>
			<circle fill="#223771" cx="202" cy="54.3" r="1.3"/>
			<circle fill="#223771" cx="114.5" cy="75.9" r="1.3"/>
			<circle fill="#223771" cx="202" cy="54.3" r="1.3"/>
			<circle fill="#223771" cx="138.2" cy="59.4" r="1.3"/>
			<circle fill="#223771" cx="202" cy="54.3" r="1.3"/>
			<circle fill="#223771" cx="136.3" cy="89.9" r="1.3"/>
			<circle fill="#223771" cx="202" cy="54.3" r="1.3"/>
			<circle fill="#223771" cx="130.5" cy="181.5" r="1.3"/>
			<circle fill="#223771" cx="200.6" cy="197.6" r="1.3"/>
			<circle fill="#223771" cx="136.3" cy="89.9" r="1.3"/>
			<circle fill="#223771" cx="200.6" cy="197.6" r="1.3"/>
			<circle fill="#223771" cx="200.6" cy="197.6" r="1.3"/>
			<circle fill="#223771" cx="224.2" cy="139" r="1.3"/>
			<circle fill="#223771" cx="202" cy="54.3" r="1.3"/>
			<circle fill="#223771" cx="224.2" cy="139" r="1.3"/>
			<circle fill="#223771" cx="224.2" cy="139" r="1.3"/>
			<circle fill="#223771" cx="130.5" cy="181.5" r="1.3"/>
			<circle fill="#223771" cx="224.2" cy="139" r="1.3"/>
			<circle fill="#223771" cx="114.5" cy="75.9" r="1.3"/>
			<circle fill="#223771" cx="224.2" cy="139" r="1.3"/>
			<circle fill="#223771" cx="138.2" cy="59.4" r="1.3"/>
			<circle fill="#223771" cx="224.2" cy="139" r="1.3"/>
			<circle fill="#223771" cx="136.3" cy="89.9" r="1.3"/>
			<circle fill="#223771" cx="224.2" cy="139" r="1.3"/>
			<circle fill="#223771" cx="224.2" cy="139" r="1.3"/>
			<circle fill="#223771" cx="248.4" cy="202.7" r="1.3"/>
			<circle fill="#223771" cx="224.2" cy="139" r="1.3"/>
			<circle fill="#223771" cx="248.4" cy="202.7" r="1.3"/>
			<circle fill="#223771" cx="200.6" cy="197.6" r="1.3"/>
			<circle fill="#223771" cx="248.4" cy="202.7" r="1.3"/>
			<circle fill="#223771" cx="248.4" cy="202.7" r="1.3"/>
			<circle fill="#223771" cx="130.5" cy="181.5" r="1.3"/>
			<circle fill="#223771" cx="248.4" cy="202.7" r="1.3"/>
		</g>
	</g>
</g>
</svg>
